<svg width="14" height="14" viewBox="0 0 14 14" fill="none" xmlns="http://www.w3.org/2000/svg">
<path d="M13.3 0.708353C12.91 0.318354 12.28 0.318354 11.89 0.708353L6.99997 5.58835L2.10997 0.698353C1.71997 0.308353 1.08997 0.308353 0.699971 0.698353C0.309971 1.08835 0.309971 1.71835 0.699971 2.10835L5.58997 6.99835L0.699971 11.8884C0.309971 12.2784 0.309971 12.9084 0.699971 13.2984C1.08997 13.6884 1.71997 13.6884 2.10997 13.2984L6.99997 8.40835L11.89 13.2984C12.28 13.6884 12.91 13.6884 13.3 13.2984C13.69 12.9084 13.69 12.2784 13.3 11.8884L8.40997 6.99835L13.3 2.10835C13.68 1.72835 13.68 1.08835 13.3 0.708353Z" fill="#174348"/>
</svg>
